<?xml version="1.0" standalone="no"?>
<!DOCTYPE svg PUBLIC "-//W3C//DTD SVG 20010904//EN"
 "http://www.w3.org/TR/2001/REC-SVG-20010904/DTD/svg10.dtd">
<svg version="1.0" xmlns="http://www.w3.org/2000/svg"
 width="444.000000pt" height="186.000000pt" viewBox="0 0 444.000000 186.000000"
 preserveAspectRatio="xMidYMid meet">

<g transform="translate(0.000000,186.000000) scale(0.100000,-0.100000)"
fill="#000000" stroke="none">
<path d="M622 1428 c-26 -28 -57 -100 -83 -193 -15 -53 -22 -118 -28 -275 -6
-153 -12 -215 -25 -244 -9 -21 -16 -50 -15 -65 0 -29 24 -89 53 -137 46 -77
219 -152 372 -161 87 -6 94 -4 144 23 102 56 171 144 123 158 -45 12 -137 26
-238 36 -105 11 -205 30 -252 50 -24 10 -40 58 -74 224 -17 84 -20 112 -11
125 42 58 93 213 91 273 -1 17 -3 14 -10 -12 -30 -112 -63 -207 -79 -228 l-19
-23 -7 37 c-16 86 29 354 67 400 20 25 53 13 60 -21 7 -29 7 -29 8 -3 0 14 -2
33 -5 42 -9 23 -47 20 -72 -6z"/>
<path d="M1704 1420 c-17 -4 -51 -17 -75 -28 -50 -25 -178 -122 -179 -136 0
-6 12 2 28 16 49 46 161 117 202 128 63 17 90 -1 118 -80 13 -35 25 -66 28
-69 11 -11 -9 116 -22 135 -17 28 -61 42 -100 34z"/>
<path d="M686 1345 c-3 -9 -6 -26 -5 -38 1 -16 4 -12 10 12 10 34 6 55 -5 26z"/>
<path d="M2564 1310 c-62 -9 -74 -15 -74 -40 0 -10 -18 -47 -39 -82 -21 -35
-58 -110 -81 -165 -37 -89 -49 -108 -98 -151 -32 -27 -88 -79 -125 -116 -38
-36 -72 -66 -75 -66 -4 0 -15 35 -26 78 -10 42 -27 94 -37 114 -10 21 -19 44
-19 52 0 45 -35 80 -136 136 -43 25 -55 25 -104 0 -64 -33 -86 -72 -125 -225
-41 -164 -50 -175 -131 -175 -79 0 -159 43 -199 106 -23 38 -30 63 -33 114 -6
98 32 181 152 331 12 14 -5 -2 -37 -35 -36 -39 -74 -94 -102 -150 -38 -74 -45
-97 -45 -146 0 -98 53 -191 131 -230 21 -11 65 -26 98 -34 140 -33 252 40 364
237 22 40 41 73 43 75 1 2 19 -6 41 -17 50 -26 109 -117 137 -211 l15 -50 -37
-47 c-79 -102 -106 -153 -110 -213 -5 -63 10 -121 35 -141 13 -12 20 -9 44 20
37 45 59 93 65 139 2 20 1 30 -2 22 -32 -79 -69 -150 -79 -154 -23 -8 -39 24
-39 78 0 62 45 161 99 221 l36 40 -5 -80 c-2 -49 -1 -68 4 -50 4 17 8 59 9 94
l1 64 104 105 c58 59 108 103 112 100 8 -9 -43 -144 -63 -163 -12 -13 -12 -15
0 -15 22 0 34 20 64 106 l28 79 75 17 c41 10 104 19 140 21 l65 2 6 -90 c7
-105 24 -150 69 -188 25 -21 41 -27 68 -25 31 3 40 10 62 48 26 45 50 114 50
143 0 9 -5 28 -12 44 -6 15 -10 34 -9 40 1 7 -9 41 -22 75 -13 35 -37 97 -52
138 -43 116 -82 186 -114 209 -16 12 -31 20 -33 20 -1 -1 -26 -5 -54 -9z m-4
-90 c0 -16 9 -68 20 -115 11 -47 20 -103 20 -125 0 -37 -2 -39 -37 -45 -21 -3
-78 -15 -127 -26 -49 -10 -91 -17 -94 -15 -5 5 35 112 76 201 28 63 105 155
128 155 9 0 14 -11 14 -30z"/>
<path d="M3802 1129 c-17 -6 -22 -14 -17 -28 3 -11 -7 -59 -24 -108 -16 -48
-35 -107 -41 -129 -7 -30 -17 -43 -33 -48 l-22 -6 23 -15 c14 -11 22 -26 22
-46 0 -60 65 -169 101 -169 16 0 19 8 19 48 1 26 7 71 14 101 12 52 14 55 57
70 54 19 69 29 69 43 0 7 -19 9 -56 4 -51 -6 -56 -5 -49 11 28 73 29 194 3
254 -13 30 -27 34 -66 18z"/>
<path d="M3671 1015 c-51 -47 -97 -85 -101 -85 -4 0 -10 8 -13 18 -5 22 -50
33 -100 25 l-35 -5 2 53 c1 62 -17 73 -43 27 -13 -22 -13 -33 -4 -57 9 -26 8
-34 -12 -60 -12 -17 -43 -50 -69 -72 l-47 -42 -30 29 c-16 15 -29 37 -29 48 0
32 -42 99 -70 113 -45 23 -103 16 -148 -17 -51 -37 -62 -57 -62 -114 0 -43 3
-48 51 -86 29 -23 59 -40 68 -38 14 3 47 84 67 163 6 28 8 25 20 -32 7 -35 20
-76 29 -93 14 -27 20 -30 66 -30 46 0 51 3 67 31 9 17 41 60 71 95 45 55 56
62 72 53 17 -9 19 -20 17 -117 -3 -98 -1 -111 22 -155 25 -48 61 -70 82 -49
15 15 38 160 36 230 l-1 63 59 57 c32 31 79 74 103 95 25 20 40 37 35 37 -5 0
-51 -38 -103 -85z m-261 8 c0 -21 -3 -24 -9 -14 -5 8 -7 20 -4 28 8 21 13 15
13 -14z m-320 -67 c0 -2 -10 -29 -21 -60 -14 -37 -27 -56 -38 -56 -22 0 -41
19 -41 41 0 28 49 79 76 79 13 0 24 -2 24 -4z"/>
<path d="M805 969 c-56 -44 -74 -75 -75 -135 0 -70 39 -123 92 -124 30 0 51
18 73 61 14 25 13 33 -1 68 -9 22 -14 48 -12 58 3 14 10 9 30 -22 61 -96 115
-106 213 -39 33 23 69 52 80 65 l20 23 -21 -14 c-12 -8 -40 -30 -64 -47 -72
-55 -152 -36 -185 43 -20 50 -65 104 -84 103 -9 0 -38 -18 -66 -40z m58 -97
c-3 -31 -7 -59 -9 -60 -8 -10 -44 12 -44 26 1 28 39 104 49 98 5 -4 7 -32 4
-64z"/>
</g>
</svg>
